<svg width="30" height="30" viewBox="0 0 30 30" fill="none" xmlns="http://www.w3.org/2000/svg">
    <path fill-rule="evenodd" clip-rule="evenodd" d="M22.0408 0C26.4366 0 30 3.56345 30 7.95918V22.0408C30 26.4366 26.4366 30 22.0408 30H7.95918C3.56345 30 0 26.4366 0 22.0408V7.95918C0 3.56345 3.56345 0 7.95918 0H22.0408ZM10.8244 7.34698H6.88222C6.58008 7.34698 6.42857 7.45718 6.42857 7.67881C6.42857 7.71003 6.43456 7.74217 6.44681 7.77309C6.45905 7.80493 6.46519 7.84105 6.46519 7.88054L12.7474 23.8017C12.8123 23.9596 12.8797 24.1142 12.9489 24.2645C13.0184 24.4142 13.0979 24.5609 13.1876 24.7026C13.2694 24.8685 13.4369 24.9515 13.6897 24.9515H16.7142C16.8366 24.9515 16.9468 24.912 17.0454 24.833C17.1427 24.7543 17.2286 24.6573 17.302 24.5425C17.3761 24.4283 17.4409 24.304 17.4979 24.169C17.5557 24.0349 17.6041 23.9122 17.6448 23.8017L23.9632 7.88054V7.84472C23.9721 7.82115 23.9761 7.77768 23.9761 7.71401C23.9761 7.60319 23.9366 7.51503 23.8592 7.44768C23.7817 7.38064 23.6488 7.34698 23.4617 7.34698H19.6041C19.2695 7.34698 19.0447 7.49667 18.9306 7.79758C18.596 8.69789 18.276 9.59697 17.9693 10.4939C17.6632 11.3915 17.361 12.2905 17.0632 13.1918C16.7653 14.0921 16.4632 14.9912 16.1571 15.8881C15.8516 16.7857 15.5304 17.6847 15.1943 18.5908L13.7253 22.2101C13.7167 22.242 13.6827 22.2659 13.6488 22.2625C13.6108 22.2585 13.5832 22.2245 13.5872 22.1869C13.5872 22.1853 14.5307 17.5904 14.5307 17.5904C14.5307 17.5904 14.6186 17.246 14.6112 17.0471C14.6039 16.8481 14.4836 16.5264 14.4836 16.5264L11.4612 7.79758C11.3473 7.49667 11.1352 7.34698 10.8244 7.34698Z" fill="white"/>
</svg>
